<?xml version="1.0" encoding="utf-8"?>
<!-- Shopping Cart SVG Icon -->
<svg width="24px" height="24px" viewBox="0 0 24 24" fill="none" xmlns="http://www.w3.org/2000/svg">
  <path d="M4.78571 5H18.2143C19.2 5 20 5.9 20 7C20 8.1 19.2 9 18.2143 9H4.78571C3.8 9 3 8.1 3 7C3 5.9 3.8 5 4.78571 5Z" fill="#000000"/>
  <path d="M5 7L16.5 7L16.5 17C16.5 18.1046 15.6046 19 14.5 19H7C5.89543 19 5 18.1046 5 17L5 7Z" fill="#000000"/>
  <path d="M15 5C15 3.34315 13.6569 2 12 2C10.3431 2 9 3.34315 9 5" stroke="#000000" stroke-width="2" stroke-linecap="round" stroke-linejoin="round"/>
  <circle cx="8.5" cy="22" r="1" stroke="#000000" stroke-width="2"/>
  <circle cx="14.5" cy="22" r="1" stroke="#000000" stroke-width="2"/>
</svg>